<?xml version="1.0" standalone="no"?>
<!DOCTYPE svg PUBLIC "-//W3C//DTD SVG 20010904//EN"
 "http://www.w3.org/TR/2001/REC-SVG-20010904/DTD/svg10.dtd">
<svg version="1.0" xmlns="http://www.w3.org/2000/svg"
 width="932.000000pt" height="678.000000pt" viewBox="0 0 932.000000 678.000000"
 preserveAspectRatio="xMidYMid meet">
<metadata>
Created by potrace 1.16, written by Peter Selinger 2001-2019
</metadata>
<g transform="translate(0.000000,678.000000) scale(0.100000,-0.100000)"
fill="#000000" stroke="none">
<path d="M3765 5986 c-129 -30 -234 -87 -328 -179 -99 -97 -142 -165 -211
-337 -21 -52 -62 -152 -92 -222 -30 -70 -54 -129 -54 -132 0 -3 -11 -29 -24
-58 -12 -29 -42 -102 -66 -163 -23 -60 -56 -139 -72 -175 -17 -36 -46 -105
-65 -155 -19 -49 -39 -99 -43 -110 -5 -11 -59 -146 -120 -300 -61 -154 -115
-289 -120 -300 -5 -11 -28 -67 -51 -125 -22 -58 -49 -123 -59 -145 -28 -61
-70 -165 -87 -215 -8 -25 -24 -65 -35 -90 -31 -69 -31 -70 -133 -323 -52 -131
-106 -262 -118 -290 -13 -29 -41 -97 -61 -152 -21 -55 -41 -109 -46 -120 -4
-11 -15 -38 -23 -60 -12 -32 -17 -37 -22 -22 -4 10 -3 28 3 40 5 12 18 40 27
62 10 22 23 54 30 70 15 34 29 75 31 90 1 14 14 47 26 69 7 14 6 21 -4 27 -10
7 -10 9 0 9 7 0 12 8 10 18 -1 9 0 22 4 28 4 5 1 21 -6 35 -8 17 -19 23 -35
21 -21 -3 -23 0 -18 25 8 44 70 216 88 244 9 13 24 43 34 67 14 30 25 42 39
42 19 -1 19 -2 4 -11 -10 -5 -15 -16 -11 -25 4 -10 9 -12 18 -4 6 5 15 7 18 3
4 -3 13 -1 20 5 8 7 17 9 20 5 4 -3 7 -1 7 5 0 19 -4 27 -12 25 -4 -2 -22 6
-40 17 l-33 20 33 0 c18 0 41 -4 51 -10 14 -7 21 -4 31 15 16 29 10 37 -27 40
-16 1 -36 3 -45 3 -30 3 -20 32 12 39 34 6 41 23 10 23 -13 0 -20 7 -20 20 0
11 7 20 15 20 8 0 15 5 15 10 0 6 9 10 21 10 12 0 19 5 16 13 -2 6 -14 11 -26
10 -11 -2 -21 0 -21 3 0 4 16 43 36 88 19 44 40 92 46 106 5 14 16 39 24 55 7
17 24 62 38 100 14 39 43 115 66 170 23 55 59 145 80 200 22 55 69 172 105
260 37 88 77 189 91 225 14 36 29 74 34 85 13 28 160 390 231 570 170 426 248
576 353 673 25 23 40 42 33 42 -15 0 -150 -144 -190 -203 -67 -99 -119 -218
-371 -842 -116 -287 -257 -632 -281 -690 -38 -88 -109 -266 -121 -303 -9 -24
-41 -105 -73 -180 -32 -75 -97 -238 -146 -362 -106 -270 -166 -397 -179 -377
-7 11 -15 7 -38 -18 -15 -18 -41 -36 -56 -39 -33 -8 -199 -58 -304 -91 -43
-14 -84 -25 -93 -25 -8 0 -15 -4 -15 -10 0 -5 -7 -10 -17 -10 -14 0 -14 2 2
20 10 11 24 20 32 20 8 0 27 10 43 21 16 12 42 22 57 23 37 1 37 27 0 37 -15
4 -41 4 -57 -1 -15 -4 -31 -6 -34 -2 -3 3 -16 1 -29 -5 -12 -6 -42 -16 -67
-23 -25 -7 -69 -23 -98 -36 -29 -13 -55 -24 -57 -24 -3 0 -22 -11 -43 -25 -20
-13 -53 -30 -72 -36 -19 -6 -44 -19 -55 -29 -20 -17 -55 -33 -55 -25 0 12 172
130 238 162 41 21 69 39 62 41 -6 2 -17 -1 -23 -7 -6 -6 -19 -11 -29 -11 -10
0 -18 -4 -18 -10 0 -5 -6 -10 -14 -10 -16 0 -111 -52 -192 -106 -180 -120
-344 -340 -412 -554 -57 -180 -56 -177 -56 -370 0 -195 5 -231 59 -389 55
-162 139 -294 258 -407 119 -114 202 -163 356 -214 306 -100 643 -35 878 168
140 122 216 244 322 517 18 44 35 89 40 100 5 11 13 31 18 45 6 14 15 36 21
50 5 14 54 138 107 275 140 358 155 395 169 395 7 0 27 -16 46 -35 l34 -35
-21 -44 c-72 -148 -45 -294 75 -411 24 -24 69 -54 98 -66 30 -12 54 -26 54
-31 0 -27 68 -148 107 -189 45 -48 82 -70 163 -99 38 -14 50 -25 80 -78 67
-120 160 -189 282 -213 56 -11 61 -15 92 -63 70 -109 161 -165 283 -174 101
-7 201 30 275 101 7 7 26 22 41 34 28 21 31 22 65 7 100 -42 129 -48 227 -48
90 0 106 3 160 29 55 28 128 90 181 156 15 19 35 28 69 34 74 11 150 49 202
102 52 52 62 68 93 154 19 53 22 56 73 72 30 9 77 34 107 54 83 59 123 126
160 270 9 35 16 44 38 49 15 3 37 9 49 14 12 5 24 6 26 2 3 -4 8 -164 12 -356
3 -192 11 -374 16 -405 14 -86 68 -190 135 -257 55 -55 112 -90 204 -125 47
-18 204 -18 260 0 119 39 234 136 288 243 63 125 62 104 62 1248 l0 1039 428
3 c378 3 432 6 472 21 184 72 317 181 398 327 67 119 120 299 141 473 9 78 6
117 -10 117 -4 0 -12 -17 -17 -37 -5 -21 -15 -58 -21 -83 -7 -25 -15 -60 -18
-77 -8 -53 -18 -30 -22 48 -1 41 -5 77 -7 81 -10 16 -26 7 -21 -12 3 -11 1
-20 -4 -20 -5 0 -9 9 -9 20 0 11 -7 23 -15 26 -10 4 -13 13 -10 25 6 18 -4 19
-267 20 -846 2 -1144 -5 -1080 -26 12 -4 22 -11 22 -16 0 -12 -65 -22 -92 -13
-22 7 -21 8 12 17 56 16 7 21 -64 7 -69 -14 -95 -21 -186 -51 -63 -21 -95 -35
-303 -133 -53 -25 -102 -46 -108 -46 -13 0 -57 -27 -89 -55 -40 -35 -112 -69
-170 -81 -61 -12 -294 -16 -330 -5 -19 5 -80 23 -135 40 -140 42 -246 72 -275
78 -14 2 -34 8 -45 13 -11 5 -33 11 -50 13 -16 3 -68 12 -115 21 -78 14 -203
16 -217 3 -5 -5 30 -13 86 -19 30 -4 39 -24 14 -31 -11 -4 -9 -5 7 -4 49 3
150 -15 150 -26 0 -9 -59 -12 -212 -12 l-213 0 -16 30 c-9 17 -21 28 -30 26
-8 -2 -30 -7 -49 -11 -30 -5 -121 -44 -140 -58 -3 -2 11 -17 30 -33 35 -30 34
-41 -7 -54 -20 -6 -23 -3 -23 24 0 17 -4 31 -10 31 -5 0 -10 -7 -10 -15 0 -8
-7 -15 -15 -15 -8 0 -15 -4 -15 -10 0 -5 7 -10 15 -10 18 0 20 -21 3 -38 -19
-19 -41 -15 -35 7 4 17 0 19 -29 18 -20 -2 -39 -11 -48 -22 -8 -11 -17 -17
-21 -14 -3 4 1 14 10 23 9 9 13 20 10 26 -8 13 -111 -84 -130 -123 -18 -37
-19 -40 -2 -34 8 3 21 -7 31 -24 17 -29 13 -50 -17 -81 -7 -7 -22 -29 -34 -48
-12 -19 -32 -46 -44 -59 l-22 -24 -17 21 c-12 14 -24 18 -43 15 -36 -7 -34 6
8 73 19 30 35 57 35 60 0 2 4 10 10 17 46 57 60 76 60 85 0 5 7 15 16 23 8 7
24 29 34 49 10 20 33 50 51 68 l33 32 -27 0 c-15 0 -27 -4 -27 -10 0 -5 -7
-10 -15 -10 -8 0 -12 -6 -9 -13 7 -21 -95 -65 -187 -82 -145 -25 -303 -18
-428 21 -54 17 -61 17 -61 3 0 -5 -11 -34 -25 -62 -34 -74 -165 -387 -165
-397 0 -4 -18 -48 -41 -97 -45 -96 -109 -255 -129 -318 -7 -22 -26 -69 -42
-105 -42 -93 -46 -102 -52 -131 -5 -21 -2 -26 12 -25 13 1 16 -6 14 -29 -5
-48 13 -19 53 85 20 52 40 104 45 115 24 60 142 359 163 415 14 36 38 94 54
130 16 36 40 92 53 125 35 90 31 89 143 71 53 -9 153 -16 222 -16 71 0 125 -4
125 -9 0 -6 -18 -30 -40 -56 -108 -125 -149 -215 -150 -325 0 -140 56 -233
178 -291 61 -30 75 -32 167 -32 153 0 200 24 458 230 182 146 242 172 322 139
32 -14 160 -108 400 -296 61 -47 139 -107 175 -132 36 -26 74 -55 85 -65 11
-10 83 -66 160 -123 77 -58 142 -107 145 -110 3 -3 34 -28 70 -55 101 -76 150
-126 150 -152 0 -25 -20 -63 -54 -101 -32 -36 6 -28 51 10 55 48 59 52 66 68
4 12 6 12 6 -1 1 -9 -6 -22 -14 -29 -8 -7 -15 -20 -15 -29 0 -9 -7 -26 -15
-38 -11 -15 -12 -28 -6 -45 10 -23 10 -23 10 5 1 15 5 27 10 27 5 0 11 10 14
22 10 37 18 14 11 -30 -11 -70 -79 -123 -179 -141 l-40 -7 -1 -64 c-1 -75 -31
-160 -72 -203 -37 -39 -113 -76 -186 -91 -57 -12 -61 -15 -64 -42 -9 -107 -69
-199 -154 -239 -48 -22 -80 -17 -89 15 -4 14 -7 20 -8 14 -1 -17 -97 -10 -155
10 -86 31 -288 173 -360 254 -16 18 -31 31 -33 28 -2 -2 0 -30 6 -62 10 -55 5
-161 -7 -149 -3 3 -7 32 -9 65 -4 71 -22 117 -64 165 -46 52 -86 67 -182 69
l-82 1 -14 45 c-7 25 -20 56 -28 70 -8 14 -17 32 -19 40 -8 22 -87 79 -126 91
-18 5 -59 7 -90 3 -50 -5 -58 -3 -69 14 -7 11 -18 18 -25 15 -8 -3 -16 6 -20
21 -3 14 -10 24 -14 21 -10 -6 -35 54 -26 63 4 4 12 -1 17 -11 6 -9 17 -17 24
-17 8 0 15 -9 15 -20 0 -11 5 -20 11 -20 14 0 4 45 -17 77 -13 20 -16 21 -41
8 -24 -13 -30 -12 -48 3 -55 49 -122 54 -179 14 -45 -31 -296 -301 -296 -318
0 -3 -6 -12 -14 -19 -12 -12 -15 -12 -20 1 -4 11 -10 12 -25 4 -26 -14 -31
-13 -31 6 0 10 -6 14 -15 11 -8 -4 -17 -2 -20 3 -4 7 -13 6 -25 0 -25 -13 -30
-13 -30 5 0 19 -16 19 -24 0 -20 -53 -166 55 -166 123 0 18 22 25 32 11 7 -10
8 -6 5 13 -2 16 1 36 8 45 11 14 10 23 -2 46 -8 16 -12 34 -9 40 3 9 5 9 5 0
1 -20 18 -15 24 7 3 10 -1 24 -9 31 -8 6 -14 18 -14 25 0 8 -6 11 -15 8 -21
-8 -19 8 5 34 27 29 25 47 -8 69 -15 10 -57 50 -93 88 -35 39 -68 70 -72 70
-5 0 -26 -45 -47 -100 -32 -86 -82 -213 -110 -280 -5 -11 -25 -63 -45 -115
-36 -95 -49 -125 -68 -168 -10 -22 -12 -22 -24 -6 -15 21 -17 44 -4 44 8 0 24
32 26 52 0 3 3 10 8 14 4 4 7 16 7 27 0 11 7 25 17 32 18 14 8 39 -13 31 -7
-3 -23 4 -36 14 l-23 19 53 1 c51 0 54 1 68 35 8 20 12 40 9 45 -4 6 -2 10 3
10 5 0 16 23 25 51 20 61 21 70 6 66 -6 -1 -14 4 -16 11 -3 7 5 12 20 12 14 0
27 6 30 14 7 19 -43 32 -54 14 -5 -8 -11 -4 -19 16 -8 22 -7 40 4 75 23 75 83
237 100 270 9 16 16 36 16 44 0 8 6 17 14 20 8 3 16 18 18 34 2 20 8 27 21 25
19 -3 24 14 6 20 -12 4 29 147 56 197 13 24 38 90 96 246 12 33 43 112 69 175
27 63 57 140 68 170 33 90 181 468 282 720 131 327 339 839 364 895 15 33 41
75 58 93 24 24 28 32 15 32 -29 0 -78 -61 -117 -145 -37 -80 -99 -229 -290
-700 -56 -137 -108 -263 -114 -280 -23 -54 -55 -134 -193 -480 -75 -187 -143
-358 -153 -380 -9 -22 -38 -94 -64 -160 -27 -66 -65 -163 -86 -215 -22 -52
-78 -194 -125 -315 -47 -121 -99 -254 -116 -295 -41 -99 -41 -100 -84 -210
-20 -52 -40 -104 -45 -115 -5 -11 -57 -141 -115 -290 -157 -395 -180 -441
-267 -529 -68 -69 -143 -123 -213 -155 -16 -7 -38 -17 -47 -22 -10 -5 -27 -9
-37 -9 -11 0 -23 -5 -27 -11 -14 -23 111 15 211 64 28 14 52 23 55 20 17 -17
-133 -107 -220 -132 -25 -7 -58 -17 -74 -22 -16 -5 -80 -9 -143 -9 -147 0
-279 33 -365 92 -14 10 -31 18 -37 18 -14 0 -52 31 -126 105 -98 97 -184 244
-224 380 -26 90 -34 373 -12 412 8 14 10 4 11 -44 0 -93 19 -212 40 -254 11
-20 17 -39 14 -42 -3 -3 -1 -14 5 -26 6 -12 16 -30 21 -41 5 -11 10 -27 10
-35 0 -9 4 -14 9 -11 5 4 6 20 1 39 -5 17 -13 51 -19 73 -14 54 -14 290 0 351
44 194 119 333 248 463 125 125 227 180 501 271 96 31 211 71 254 89 45 17 83
27 88 22 8 -8 1 -29 -42 -127 -19 -44 -89 -223 -115 -297 -10 -26 -23 -52 -29
-57 -6 -5 -54 -24 -106 -41 -52 -18 -122 -46 -155 -63 -74 -39 -190 -153 -229
-225 -104 -196 -55 -418 111 -502 65 -33 177 -35 243 -3 113 53 143 107 324
568 48 121 93 234 101 250 7 17 59 145 114 286 55 141 106 271 115 290 38 89
47 111 85 214 23 61 46 119 51 130 17 36 260 645 285 713 23 64 134 342 155
390 18 41 28 66 55 142 14 41 30 83 36 92 5 10 9 25 9 33 0 8 5 15 10 15 6 0
10 6 10 14 0 13 32 93 90 221 32 72 41 94 85 207 17 46 23 76 19 94 -6 23 -4
26 10 21 15 -6 17 -3 11 22 -3 16 -2 38 3 48 6 10 22 48 37 86 25 61 45 86 45
55 0 -7 12 10 26 37 79 149 174 255 292 324 109 64 188 85 322 86 130 0 183
-12 280 -62 146 -77 239 -182 359 -408 14 -27 21 -33 21 -20 0 11 -7 33 -15
49 -8 15 -15 33 -15 40 0 6 18 -24 41 -67 22 -43 38 -83 35 -90 -2 -7 -5 -4
-5 6 -1 9 -5 17 -10 17 -5 0 -12 8 -14 18 -4 16 -5 16 -6 -1 0 -10 28 -77 62
-150 35 -73 72 -150 82 -172 10 -22 46 -99 81 -172 35 -73 64 -137 64 -143 0
-5 5 -10 10 -10 6 0 10 -6 10 -13 0 -8 14 -42 31 -78 70 -143 129 -270 129
-276 0 -3 29 -66 65 -140 36 -74 63 -137 61 -142 -3 -4 -20 -6 -38 -5 -18 2
-24 1 -13 -2 11 -3 29 -9 40 -14 11 -4 36 -13 55 -20 19 -7 44 -15 55 -20 26
-9 112 -30 127 -30 24 0 -8 18 -67 38 -86 29 -115 43 -115 57 0 8 34 1 98 -21
106 -36 122 -39 122 -23 0 12 -102 59 -129 59 -51 0 -83 56 -291 500 -37 80
-120 255 -185 390 -65 135 -130 272 -145 305 -103 221 -136 286 -185 361 -113
174 -229 265 -405 319 -76 23 -267 29 -345 11z m4233 -1880 c9 -9 -21 -122
-49 -182 -35 -78 -106 -171 -154 -204 -24 -16 -48 -30 -54 -30 -5 0 -13 -5
-17 -11 -10 -17 29 -3 119 42 42 21 77 35 77 30 0 -13 -52 -57 -106 -90 -99
-60 -105 -61 -603 -61 -469 0 -506 -3 -563 -42 -14 -10 -29 -18 -32 -18 -4 0
-40 -22 -81 -49 l-75 -50 19 37 c19 36 88 96 147 127 19 10 23 15 11 15 -16 0
-54 -17 -67 -30 -3 -3 -18 -12 -34 -20 -16 -8 -55 -41 -86 -72 -53 -54 -58
-57 -73 -40 -29 33 -198 375 -195 396 2 16 39 39 153 96 217 109 333 144 530
159 129 9 1122 7 1133 -3z m-1763 -453 c119 -233 157 -307 223 -428 72 -133
105 -249 86 -300 -5 -13 -8 -14 -15 -3 -5 7 -9 23 -9 36 0 39 -47 158 -103
265 -30 56 -76 143 -103 192 -26 50 -52 100 -58 112 -6 13 -14 23 -18 23 -5 0
-8 9 -8 19 0 11 -3 21 -7 23 -9 3 -153 288 -153 301 0 4 9 7 20 7 15 0 45 -51
145 -247z m-1315 213 c36 -8 112 -31 169 -51 202 -70 418 -114 553 -115 38 0
110 7 160 16 l93 16 20 -26 c11 -15 104 -193 207 -397 183 -359 188 -370 172
-394 -8 -13 -73 -67 -142 -119 -70 -52 -143 -109 -162 -126 -32 -28 -33 -31
-10 -24 14 4 27 9 30 13 3 3 12 11 21 16 38 24 77 51 119 85 76 62 180 132
180 123 0 -13 -43 -52 -115 -104 -33 -24 -94 -71 -135 -105 -98 -79 -112 -86
-144 -74 -37 14 -103 58 -166 111 -46 39 -126 100 -260 199 -14 11 -79 60
-145 110 -66 50 -133 101 -149 113 -16 12 -43 33 -59 47 -17 13 -69 53 -116
88 -115 84 -140 103 -171 129 -67 55 -212 102 -277 90 -105 -20 -216 -70 -257
-116 -11 -12 -46 -40 -78 -63 -73 -53 -164 -120 -201 -149 -40 -31 -120 -59
-168 -59 -72 0 -149 61 -149 118 0 31 29 36 36 6 6 -23 38 -54 56 -54 5 0 2
13 -6 28 -18 35 -22 27 108 214 192 276 219 306 317 355 114 57 213 90 359
117 48 9 246 -2 310 -18z m1899 -1225 c0 -405 -2 -731 -4 -726 -2 6 -6 327 -8
715 -3 388 -7 723 -11 745 -5 37 -5 39 9 21 13 -17 15 -118 14 -755z m-246
-600 c-2 -768 -2 -768 -23 -815 -13 -25 -36 -57 -53 -71 -38 -29 -29 -45 10
-18 25 18 73 36 73 28 0 -34 -76 -88 -142 -102 -82 -18 -164 5 -228 63 -49 44
-69 87 -75 163 -2 31 -2 45 1 31 22 -106 132 -208 229 -211 65 -2 99 1 92 8
-4 4 -32 6 -61 4 -30 -1 -62 2 -73 7 -63 31 -81 44 -108 77 l-30 37 -3 623 -3
623 98 73 c82 61 195 153 239 194 6 6 16 20 23 33 35 65 36 41 34 -747z
m-2843 129 c29 -29 35 -67 17 -105 -14 -30 -212 -264 -247 -292 -45 -37 -101
-27 -124 22 -22 46 -17 56 132 230 142 168 177 190 222 145z m-2110 -125 c0
-2 -16 -48 -35 -102 -36 -98 -68 -148 -92 -139 -7 3 -15 1 -18 -5 -4 -5 8 -12
25 -15 17 -4 33 -11 36 -16 11 -18 -19 -38 -57 -38 -60 0 -89 42 -89 126 0 51
13 51 34 1 l14 -32 10 25 11 25 1 -25 c1 -17 8 -5 20 35 20 63 98 165 126 165
8 0 14 -2 14 -5z m2196 -174 c-10 -11 -25 -17 -37 -14 -17 5 -24 -5 -20 -30 2
-13 -19 -47 -66 -106 -96 -120 -101 -130 -75 -150 11 -9 27 -32 36 -52 19 -41
81 -79 129 -79 16 0 50 12 75 26 36 22 43 23 40 9 -5 -27 -81 -76 -126 -82
-74 -10 -156 45 -181 120 -7 21 -17 37 -22 37 -14 0 -11 20 6 36 21 22 19 44
-5 44 -11 0 -20 -7 -20 -15 0 -17 -25 -20 -35 -5 -3 6 -1 10 4 10 6 0 11 7 11
16 0 11 -6 15 -19 11 -34 -8 -12 22 30 44 22 11 39 26 39 34 0 21 -8 19 -46
-10 -18 -14 -40 -25 -48 -25 -8 0 -26 -5 -40 -11 -20 -9 -34 -8 -68 5 -73 29
-120 101 -103 157 6 19 8 20 26 3 10 -9 19 -22 19 -29 0 -14 46 -58 77 -74 12
-6 43 -11 70 -11 55 0 114 34 163 91 15 19 31 31 36 27 4 -4 -5 -17 -19 -29
-15 -11 -27 -26 -27 -34 0 -7 -6 -15 -12 -18 -7 -2 -10 -8 -6 -12 12 -12 39 3
45 26 4 13 11 18 20 14 11 -3 13 -1 9 10 -7 19 11 19 30 0 24 -23 34 -18 28
15 -8 37 9 60 43 60 18 0 23 4 20 14 -8 21 3 27 20 10 14 -13 13 -17 -1 -33z
m236 22 c25 -22 23 -79 -3 -123 -20 -32 -84 -112 -132 -165 -11 -11 -32 -38
-47 -61 -54 -78 -116 -96 -164 -48 -50 51 -46 57 210 351 29 33 75 63 98 63
11 0 28 -7 38 -17z m330 -270 c23 -28 28 -49 18 -85 -12 -41 -201 -279 -232
-291 -27 -10 -77 0 -100 21 -34 29 -22 63 55 159 102 128 132 160 173 188 43
29 65 31 86 8z"/>
<path d="M4804 3495 c43 -23 179 -120 281 -200 50 -39 119 -92 155 -118 36
-25 78 -58 94 -72 16 -14 32 -25 35 -25 3 0 20 -13 36 -28 39 -35 166 -124
171 -119 3 2 -31 30 -73 63 -43 32 -80 61 -83 64 -3 3 -34 27 -70 54 -36 28
-69 53 -75 58 -5 4 -73 56 -150 116 -227 174 -299 222 -333 222 -11 0 -7 -5
12 -15z"/>
<path d="M6650 5989 c-222 -22 -455 -202 -477 -370 -7 -47 11 -58 29 -19 7 16
16 30 20 30 5 0 8 4 8 10 0 19 58 82 120 132 48 38 143 88 200 107 87 27 250
31 1008 26 425 -2 785 -8 800 -11 79 -19 161 -94 187 -173 19 -58 21 -133 5
-176 -17 -46 12 -24 42 31 21 40 26 63 27 123 2 126 -62 227 -176 279 -35 16
-103 17 -883 18 -465 0 -874 -3 -910 -7z m1207 -25 c-18 -18 -407 -21 -817 -6
-201 8 -169 9 299 10 288 1 522 -1 518 -4z"/>
<path d="M6106 5888 c-31 -35 -73 -99 -95 -143 -88 -181 -85 -150 -84 -938 0
-378 -2 -707 -4 -731 -5 -37 -11 -47 -42 -65 l-36 -22 45 6 c24 3 50 11 57 17
10 8 13 155 13 745 0 643 2 743 16 806 30 130 105 280 179 360 14 15 21 27 16
27 -5 0 -34 -28 -65 -62z"/>
<path d="M8741 5464 c-2 -29 -122 -129 -191 -161 -78 -36 -92 -36 -884 -34
-895 2 -826 9 -825 -87 0 -44 2 -52 9 -34 5 12 15 22 22 23 7 0 338 0 734 -1
739 -2 789 1 894 38 47 17 140 72 140 84 0 3 -6 8 -12 11 -7 2 -2 2 11 0 22
-4 23 -3 10 13 -12 16 -12 17 4 11 10 -4 16 -3 13 2 -3 4 6 19 20 32 35 32 67
86 61 102 -4 7 -6 8 -6 1z"/>
<path d="M6683 5398 c-48 -53 -48 -48 -53 -518 -3 -245 -2 -455 2 -468 6 -18
13 -21 35 -16 58 12 134 37 139 45 16 27 -23 28 -120 3 l-27 -6 3 455 3 456
34 35 c23 24 30 36 20 36 -9 0 -25 -10 -36 -22z"/>
<path d="M3887 5233 c-24 -27 -107 -219 -283 -653 -199 -492 -262 -655 -256
-662 4 -4 20 -10 36 -14 25 -6 28 -5 22 14 -4 11 -2 23 4 27 5 3 10 17 10 30
0 13 4 25 8 27 7 2 44 90 113 266 5 12 13 32 18 45 6 12 26 63 47 112 20 50
42 104 49 120 7 17 36 89 65 160 29 72 56 139 60 150 5 11 23 56 40 100 48
120 87 202 100 210 6 4 18 -1 25 -11 23 -31 235 -472 235 -490 0 -21 84 -173
93 -167 6 3 7 1 3 -5 -4 -6 19 -64 50 -129 93 -194 106 -225 97 -233 -4 -5
-39 -20 -77 -34 -106 -40 -186 -78 -186 -88 0 -11 28 -3 85 23 83 38 233 86
307 99 42 8 75 18 72 22 -3 5 -35 7 -71 6 -74 -3 -66 -11 -117 107 -18 44 -64
143 -101 220 -93 193 -158 331 -184 388 -42 91 -172 351 -183 364 -15 19 -62
16 -81 -4z"/>
<path d="M4816 2707 c-18 -23 -26 -46 -26 -73 0 -43 20 -67 125 -149 28 -22
52 -42 55 -45 3 -4 55 -44 115 -90 61 -46 144 -111 185 -144 41 -34 107 -85
145 -113 39 -28 78 -65 88 -81 23 -40 22 -93 -3 -122 -25 -29 -25 -30 5 -30
56 0 93 77 75 155 -11 49 -75 112 -245 240 -66 49 -126 96 -134 103 -8 7 -88
70 -178 140 -91 69 -172 136 -180 149 -12 18 -13 29 -4 54 15 44 8 46 -23 6z"/>
<path d="M3230 2414 c-76 -51 -192 -185 -205 -236 -9 -37 36 -102 89 -128 51
-24 133 -18 154 12 7 10 19 18 26 18 8 0 16 10 20 23 3 12 21 40 40 62 19 21
45 58 57 82 20 40 21 46 9 84 -27 80 -128 124 -190 83z m105 -79 c39 -38 32
-66 -37 -152 -93 -114 -147 -145 -190 -106 -26 24 -22 68 11 116 39 56 155
167 176 167 9 0 27 -11 40 -25z"/>
<path d="M4516 2298 c-23 -36 -29 -74 -16 -99 13 -24 35 -44 115 -104 400
-304 541 -419 559 -453 27 -52 -22 -116 -104 -134 -25 -5 -15 -6 36 -4 106 5
154 40 154 113 0 75 -17 96 -177 213 -26 19 -109 82 -183 140 -74 58 -178 138
-230 177 -157 119 -156 118 -142 147 14 32 7 34 -12 4z"/>
</g>
</svg>
